<svg width="1512" height="982" viewBox="0 0 1512 982" fill="none" xmlns="http://www.w3.org/2000/svg">
<rect width="1512" height="982" fill="white"/>
<g clip-path="url(#clip0_13_453)">
<path d="M0 984H23.016C45.864 984 91.896 984 137.76 984C183.624 984 229.656 984 275.184 984C320.88 984 366.24 984 411.936 984C457.464 984 503.496 984 549.36 984C595.224 984 641.256 984 687.12 984C732.984 984 779.016 984 824.88 984C870.744 984 916.776 984 962.64 984C1008.5 984 1054.54 984 1100.06 984C1145.76 984 1191.12 984 1236.82 984C1282.34 984 1328.38 984 1374.24 984C1420.1 984 1466.14 984 1488.98 984H1512V807.6L1488.98 793.2C1466.14 778.8 1420.1 750 1374.24 755.4C1328.38 760.8 1282.34 800.4 1236.82 798.6C1191.12 796.8 1145.76 753.6 1100.06 741C1054.54 728.4 1008.5 746.4 962.64 777C916.776 807.6 870.744 850.8 824.88 863.4C779.016 876 732.984 858 687.12 854.4C641.256 850.8 595.224 861.6 549.36 867C503.496 872.4 457.464 872.4 411.936 856.2C366.24 840 320.88 807.6 275.184 791.4C229.656 775.2 183.624 775.2 137.76 759C91.896 742.8 45.864 710.4 23.016 694.2L0 678V984Z" fill="#CD084A"/>
</g>
<defs>
<clipPath id="clip0_13_453">
<rect width="1512" height="982" fill="white"/>
</clipPath>
</defs>
</svg>
