<svg  viewBox="0 0 212 212" fill="none" xmlns="http://www.w3.org/2000/svg">
    <mask id="path-1-inside-1_11_452" fill="white">
    <path d="M159 53C159 82.2711 135.271 106 106 106C76.7289 106 53 82.2711 53 53C53 23.7289 76.7289 0 106 0C135.271 0 159 23.7289 159 53ZM66.0347 53C66.0347 75.0722 83.9278 92.9653 106 92.9653C128.072 92.9653 145.965 75.0722 145.965 53C145.965 30.9278 128.072 13.0347 106 13.0347C83.9278 13.0347 66.0347 30.9278 66.0347 53Z"/>
    </mask>
    <path d="M159 53C159 82.2711 135.271 106 106 106C76.7289 106 53 82.2711 53 53C53 23.7289 76.7289 0 106 0C135.271 0 159 23.7289 159 53ZM66.0347 53C66.0347 75.0722 83.9278 92.9653 106 92.9653C128.072 92.9653 145.965 75.0722 145.965 53C145.965 30.9278 128.072 13.0347 106 13.0347C83.9278 13.0347 66.0347 30.9278 66.0347 53Z" fill="#CD084A" stroke="white" stroke-width="8" mask="url(#path-1-inside-1_11_452)"/>
    <mask id="path-2-inside-2_11_452" fill="white">
    <path d="M159 159C159 188.271 135.271 212 106 212C76.7289 212 53 188.271 53 159C53 129.729 76.7289 106 106 106C135.271 106 159 129.729 159 159ZM66.0347 159C66.0347 181.072 83.9278 198.965 106 198.965C128.072 198.965 145.965 181.072 145.965 159C145.965 136.928 128.072 119.035 106 119.035C83.9278 119.035 66.0347 136.928 66.0347 159Z"/>
    </mask>
    <path d="M159 159C159 188.271 135.271 212 106 212C76.7289 212 53 188.271 53 159C53 129.729 76.7289 106 106 106C135.271 106 159 129.729 159 159ZM66.0347 159C66.0347 181.072 83.9278 198.965 106 198.965C128.072 198.965 145.965 181.072 145.965 159C145.965 136.928 128.072 119.035 106 119.035C83.9278 119.035 66.0347 136.928 66.0347 159Z" fill="#CD084A" stroke="white" stroke-width="8" mask="url(#path-2-inside-2_11_452)"/>
    <mask id="path-3-inside-3_11_452" fill="white">
    <path d="M212 106C212 135.271 188.271 159 159 159C129.729 159 106 135.271 106 106C106 76.7289 129.729 53 159 53C188.271 53 212 76.7289 212 106ZM119.035 106C119.035 128.072 136.928 145.965 159 145.965C181.072 145.965 198.965 128.072 198.965 106C198.965 83.9278 181.072 66.0347 159 66.0347C136.928 66.0347 119.035 83.9278 119.035 106Z"/>
    </mask>
    <path d="M212 106C212 135.271 188.271 159 159 159C129.729 159 106 135.271 106 106C106 76.7289 129.729 53 159 53C188.271 53 212 76.7289 212 106ZM119.035 106C119.035 128.072 136.928 145.965 159 145.965C181.072 145.965 198.965 128.072 198.965 106C198.965 83.9278 181.072 66.0347 159 66.0347C136.928 66.0347 119.035 83.9278 119.035 106Z" fill="#CD084A" stroke="white" stroke-width="8" mask="url(#path-3-inside-3_11_452)"/>
    <mask id="path-4-inside-4_11_452" fill="white">
    <path d="M106 106C106 135.271 82.2711 159 53 159C23.7289 159 0 135.271 0 106C0 76.7289 23.7289 53 53 53C82.2711 53 106 76.7289 106 106ZM13.0347 106C13.0347 128.072 30.9278 145.965 53 145.965C75.0722 145.965 92.9653 128.072 92.9653 106C92.9653 83.9278 75.0722 66.0347 53 66.0347C30.9278 66.0347 13.0347 83.9278 13.0347 106Z"/>
    </mask>
    <path d="M106 106C106 135.271 82.2711 159 53 159C23.7289 159 0 135.271 0 106C0 76.7289 23.7289 53 53 53C82.2711 53 106 76.7289 106 106ZM13.0347 106C13.0347 128.072 30.9278 145.965 53 145.965C75.0722 145.965 92.9653 128.072 92.9653 106C92.9653 83.9278 75.0722 66.0347 53 66.0347C30.9278 66.0347 13.0347 83.9278 13.0347 106Z" fill="#CD084A" stroke="white" stroke-width="8" mask="url(#path-4-inside-4_11_452)"/>
</svg>
